<svg xmlns="http://www.w3.org/2000/svg" viewBox="0 0 169.27 37.56"><defs><style>.cls-1{fill:#ffba00;}.cls-2{fill:#fdb913;stroke:#ffba00;stroke-miterlimit:10;}.cls-3{font-size:11.93px;fill:#009b38;font-family:CooperBlack, Cooper Black;letter-spacing:0.05em;}.cls-4{font-size:17.56px;letter-spacing:0.05em;}.cls-4,.cls-6,.cls-7{fill:#02ad37;}.cls-4,.cls-5{font-family:SVN-Arial2bold, "SVN-Arial 2";}.cls-4,.cls-5,.cls-6{font-weight:700;}.cls-5{font-size:5.4px;fill:#ff1313;letter-spacing:0.05em;}.cls-6{font-size:8.43px;font-family:SVN-LinuxLibertinebold, SVN-Linux Libertine;letter-spacing:0.05em;}</style></defs><g id="Layer_2" data-name="Layer 2"><g id="Layer_3" data-name="Layer 3"><path class="cls-1" d="M1.74,22a27,27,0,0,1,3-5.65A28,28,0,0,1,7.43,13a34.67,34.67,0,0,1,8.78-6.5,56.76,56.76,0,0,1,18.9-6c5-.53,12.25-1.3,20,2.37a28.92,28.92,0,0,1,4.28,2.47L59,8.74a37.06,37.06,0,0,0-10-4c-8.56-2.06-15.5-.41-20.42.76A47.46,47.46,0,0,0,9.51,14.21,45.35,45.35,0,0,0,1.74,22Z"/><path class="cls-2" d="M1,28a37.23,37.23,0,0,0,15,5,40.32,40.32,0,0,0,15-1.44A54.91,54.91,0,0,0,51.87,21a53.8,53.8,0,0,0,5.77-5.39,22.8,22.8,0,0,1-2.78,5.17,24.73,24.73,0,0,1-5.17,5.28A53.76,53.76,0,0,1,27.1,36.49a38.68,38.68,0,0,1-13.36,0A38.27,38.27,0,0,1,.54,31.37Z"/><text class="cls-3" transform="translate(15.3 21.97)">KHN</text><text class="cls-4" transform="translate(61.88 16.74)">KHANH HOI</text><text class="cls-5" transform="translate(63.17 25.67)">C.TY TNHH VIỄN THÔNG KHÁNH HỘI</text><text class="cls-6" transform="translate(86.98 34.01)">ISO 9001:2008</text><rect class="cls-7" x="63.17" y="18.05" width="104.07" height="0.36"/></g></g></svg>